<svg xmlns="http://www.w3.org/2000/svg" viewBox="0 0 1200 900" width="1200" height="900">
  <defs>
    <linearGradient id="bg" x1="0" y1="0" x2="0" y2="1">
      <stop offset="0%" stop-color="#1e2e2a"/>
      <stop offset="100%" stop-color="#1a2421"/>
    </linearGradient>
  </defs>
  <rect width="1200" height="900" fill="url(#bg)"/>
  <!-- Lab counter top -->
  <rect x="0" y="480" width="1200" height="16" fill="#2d4540"/>
  <rect x="0" y="480" width="1200" height="2" fill="#7a9084" opacity="0.4"/>
  <!-- Lab equipment silhouettes -->
  <!-- Microscope -->
  <rect x="140" y="320" width="24" height="160" fill="#3e5c56" opacity="0.7"/>
  <ellipse cx="152" cy="310" rx="40" ry="20" fill="#3e5c56" opacity="0.7"/>
  <rect x="120" y="460" width="64" height="20" rx="2" fill="#2d4540"/>
  <!-- Test tube rack -->
  <rect x="280" y="380" width="10" height="100" rx="5" fill="#7a9084" opacity="0.5"/>
  <rect x="298" y="370" width="10" height="110" rx="5" fill="#7a9084" opacity="0.4"/>
  <rect x="316" y="390" width="10" height="90" rx="5" fill="#7a9084" opacity="0.5"/>
  <rect x="334" y="375" width="10" height="105" rx="5" fill="#c5a059" opacity="0.3"/>
  <rect x="352" y="385" width="10" height="95" rx="5" fill="#7a9084" opacity="0.4"/>
  <!-- Centrifuge -->
  <ellipse cx="540" cy="440" rx="70" ry="40" fill="#2d4540"/>
  <ellipse cx="540" cy="430" rx="60" ry="32" fill="#3e5c56" opacity="0.6"/>
  <ellipse cx="540" cy="425" rx="20" ry="12" fill="#1a2421" opacity="0.8"/>
  <!-- Digital display -->
  <rect x="700" y="340" width="200" height="130" rx="4" fill="#0e1a17"/>
  <rect x="700" y="340" width="200" height="130" rx="4" fill="#3e5c56" opacity="0.1"/>
  <rect x="715" y="355" width="170" height="90" rx="2" fill="#0a1410"/>
  <rect x="715" y="355" width="170" height="2" fill="#c5a059" opacity="0.2"/>
  <!-- Glowing display lines -->
  <rect x="725" y="368" width="90" height="2" rx="1" fill="#7a9084" opacity="0.5"/>
  <rect x="725" y="378" width="130" height="2" rx="1" fill="#7a9084" opacity="0.3"/>
  <rect x="725" y="388" width="70" height="2" rx="1" fill="#7a9084" opacity="0.4"/>
  <rect x="725" y="408" width="150" height="3" rx="1" fill="#c5a059" opacity="0.2"/>
  <rect x="725" y="420" width="100" height="2" rx="1" fill="#7a9084" opacity="0.25"/>
  <!-- Shelf rows -->
  <rect x="960" y="200" width="200" height="4" fill="#2d4540"/>
  <rect x="960" y="300" width="200" height="4" fill="#2d4540"/>
  <rect x="960" y="400" width="200" height="4" fill="#2d4540"/>
  <!-- Items on shelves -->
  <rect x="970" y="165" width="20" height="35" rx="3" fill="#3e5c56" opacity="0.5"/>
  <rect x="998" y="170" width="18" height="30" rx="3" fill="#7a9084" opacity="0.4"/>
  <rect x="1024" y="160" width="22" height="40" rx="3" fill="#3e5c56" opacity="0.5"/>
  <rect x="970" y="265" width="180" height="35" rx="2" fill="#2d4540" opacity="0.8"/>
  <!-- Ceiling lights -->
  <rect x="200" y="0" width="200" height="6" fill="#c5a059" opacity="0.12"/>
  <rect x="200" y="6" width="200" height="120" fill="rgba(197,160,89,0.04)"/>
  <rect x="600" y="0" width="200" height="6" fill="#c5a059" opacity="0.12"/>
  <rect x="600" y="6" width="200" height="150" fill="rgba(197,160,89,0.03)"/>
  <!-- Floor -->
  <rect x="0" y="496" width="1200" height="404" fill="#111d1a"/>
  <!-- Label -->
  <text x="60" y="860" font-family="Georgia, serif" font-size="16" font-style="italic" fill="#ddcab6" opacity="0.6">Laboratory Services</text>
  <text x="1140" y="860" font-family="Georgia, serif" font-size="14" fill="#7a9084" opacity="0.4" text-anchor="end">Placeholder Image</text>
</svg>
